<?xml version="1.0" encoding="iso-8859-1"?>
<!-- Uploaded to: SVG Repo, www.svgrepo.com, Generator: SVG Repo Mixer Tools -->
<svg fill="#000000" height="800px" width="800px" version="1.1" id="Layer_1" xmlns="http://www.w3.org/2000/svg" xmlns:xlink="http://www.w3.org/1999/xlink" 
	 viewBox="0 0 512.349 512.349" xml:space="preserve">
<g transform="translate(1 1)">
	<g>
		<g>
			<path d="M506.228,313.376c-15.36-20.48-30.72-20.48-68.267-0.853l-73.387,45.227c-10.24,5.973-33.28,7.68-54.613,7.68
				c4.267-7.68,2.56-17.067-5.12-28.16c-13.653-19.627-36.693-31.573-61.44-31.573h-33.28c-17.92,0-34.987-5.12-48.64-15.36
				c-30.791-23.093-78.94,2.035-102.4,17.023v-17.876H-0.652v221.867h59.733v-25.6h110.933c17.067,0,34.987-1.707,52.053-2.56
				l110.933-17.067c4.267,0,8.533-0.853,11.947-1.707c10.24-1.707,19.627-6.827,28.16-14.507l128.853-102.4
				C512.202,338.976,513.908,323.616,506.228,313.376z M42.015,494.283h-25.6V306.549h25.6v12.8v166.4V494.283z M491.722,335.563
				L362.015,436.256l-0.853,0.853c-5.12,5.973-11.947,9.387-18.773,10.24h-0.853c-3.413,0.853-5.973,0.853-9.387,0.853
				l-112.64,17.067c-16.213,2.56-33.28,3.413-49.493,3.413H59.082v-140.8c20.48-14.507,68.267-41.813,92.16-23.04
				c16.213,11.947,37.547,18.773,58.88,18.773h33.28c19.627,0,37.547,8.533,48.64,24.747c3.413,5.12,4.267,10.24,3.413,11.947
				c-2.56,4.267-12.8,5.973-23.893,6.827c-3.413,0-6.827,0-9.387,0h-67.413c-26.453,0-42.667,12.8-42.667,34.133
				c0,5.12,3.413,8.533,8.533,8.533c5.12,0,8.533-3.413,8.533-8.533c0-4.267,0-17.067,25.6-17.067h66.56v0c2.56,0,5.973,0,11.093,0
				c0.853,0,2.56,0,4.267,0c40.107,0.853,77.653,0,97.28-10.24l73.387-45.227c35.84-17.92,39.253-13.653,46.08-3.413
				C495.135,327.883,495.135,333.003,491.722,335.563z"/>
			<path d="M152.948,152.95c56.32,0,102.4-46.08,102.4-102.4c0-5.12-3.413-8.533-8.533-8.533c-56.32,0-102.4,46.08-102.4,102.4
				C144.415,149.536,147.828,152.95,152.948,152.95z M237.428,59.936c-3.413,39.253-35.84,71.68-75.947,75.947
				C165.748,95.776,197.322,64.203,237.428,59.936z"/>
			<path d="M192.202,185.376c-4.267,1.707-6.827,6.827-5.12,11.093c10.24,25.6,29.013,46.08,53.76,57.173
				c13.653,5.973,28.16,9.387,42.667,9.387c11.947,0,23.893-2.56,34.987-6.827c4.267-1.707,6.827-6.827,5.12-11.093
				C303.988,192.203,245.108,165.749,192.202,185.376z M248.522,237.429c-17.92-7.68-32.427-22.187-40.96-39.253
				c18.773-5.12,38.4-3.413,56.32,5.12c17.92,7.68,32.427,22.187,40.96,39.253C286.068,247.669,266.442,245.963,248.522,237.429z"/>
			<path d="M307.402,142.709c0.853,0,2.56,0,3.413-0.853c23.893-12.8,41.813-33.28,50.347-59.733
				c8.533-26.453,5.973-54.613-6.827-78.507c-1.707-4.267-6.827-5.973-11.093-3.413c-23.893,12.8-41.813,33.28-50.347,59.733
				c-8.533,26.453-5.973,54.613,6.827,78.507C301.428,141.003,303.988,142.709,307.402,142.709z M309.108,65.056
				c5.973-18.773,17.92-34.133,34.133-45.227c6.827,17.92,7.68,38.4,1.707,57.173c-5.973,18.773-17.92,34.133-34.133,45.227
				C303.988,103.456,303.135,83.829,309.108,65.056z"/>
		</g>
	</g>
</g>
</svg>